M48
;Layer_Color=9474304
;FILE_FORMAT=4:3
METRIC,LZ
;TYPE=PLATED
T01F00S00C0.200
T02F00S00C0.245
T03F00S00C0.400
T05F00S00C1.000
T06F00S00C3.200
;TYPE=NON_PLATED
T07F00S00C2.800
%
T01
X01478Y00193
X01462Y00271
X01477Y00322
X0140609Y002964
X0131025
X0126725Y0027544
X0127714Y0024957
X0131025Y0021595
X013475Y002017
X0126725Y0018026
X0131025Y0010275
X0115334Y0016433
X010327Y0016704
X0100634Y0012545
Y0011775
X00976Y0010043
X0104334Y001001
X0104901Y0009507
X0111243Y0007825
X0098127Y0023941
X0123225Y003099
X0087862Y002825
X0085792
X0083717
X0084701Y0024417
X0088438Y0024366
X008865Y0018343
X00904Y0019298
X008135Y001942
X008015Y0019323
X007813Y0020699
X0075024Y0020559
X00744Y0018381
X0070865Y0017115
X0072038Y0015524
X00682Y0015598
X0068222Y0014057
X0066786Y0017123
Y0018892
X006924Y002387
X0071836
X0073568Y0023282
X00744Y0024274
Y0028318
X0076358Y0027978
X0071989Y00284
X006939Y0028318
X00688Y00308
X0065033Y0029723
X0065564Y00325
X006069Y0014385
X005815
X0075425Y000516
X008035
X00853
X00935Y00079
Y00095
Y0010991
X009622Y0012206
X00971Y0009512
X005561Y0014421
X00531Y00144
X004799Y0014385
X005053Y00196
X004545
X004291
X004545Y0022398
X00427Y00315
X002714Y00325
X002645Y00262
X00255Y00187
X00245Y00105
X002714
X001904Y00109
Y00316
X00165Y00109
X0011421Y0039175
X00121Y0043475
X0012088Y004495
X0012825Y0046475
X00142Y0045975
X0011994Y0047715
X00121Y0048975
X0012087Y0052802
X0012265Y0055023
X001458Y00534
X00165Y00554
X00162Y00649
X0011175
X000865Y00679
Y00689
Y00698
Y00706
X001084Y007238
X0009453Y00609
X00236Y00576
Y00568
Y0056
X002795Y0049586
X0031226Y005155
Y0052838
X00359Y0052591
X00362Y0053479
Y00546
X00399
X004075Y00535
X0041625Y0054
X0039988Y0052025
X003925Y0049932
X003655Y0049962
X00359
X003475Y0048975
X0033414Y0047425
Y0043475
X00338Y0042475
X003655Y0043262
X00404Y0045175
X0040709Y0047125
X0041701Y0047629
X00447Y0046475
X0047928Y0046
Y0047964
X004659Y0043664
X0045942Y0043141
X0042689Y0044364
X00438Y0049875
Y005155
X0053164Y0050012
X00556Y005091
X00536Y00655
X00519Y0064474
X00503Y0063489
X004659Y006555
X0045865Y0065
X0048403Y00727
X0038225Y007
X00381Y0062
X00269Y0044245
X002791Y0042475
X0027435Y0034075
X00246Y00332
X00183Y0044245
Y0048
X0058289Y0049457
X0061975Y004695
X0060677Y0045088
X00646Y004036
X0065564Y0040364
X0064614Y003721
X0064244Y0034246
X00681Y00338
X00676Y00353
X00676Y0036654
X00681Y0037222
X00688Y0037214
X007
X00708
X0071989
X00736Y0037214
X00748Y00367
X0076341Y00367
X00776Y0037214
X00784
X00828Y0036825
X0082605Y0039587
X00809Y0039614
X0083717Y0040364
X0085792Y0041164
X0087862Y0041964
X008988Y0042404
X00904Y0043964
X0085792Y004596
Y004676
Y004756
X00839Y0047654
X008142Y0043416
X0082067Y004259
X0079767Y0042764
X00764Y004396
Y004556
X00748Y0045564
X0074002Y0045562
X0074002Y0044762
X00748Y0044764
Y0043964
X0074002Y0043962
Y0043162
X0074Y0042364
X00732
Y004316
X0072398Y0043158
X00724Y0042364
X00716
X0071598Y0043158
X00708Y0043164
Y0043964
Y0044764
Y004556
X0071598Y0045558
Y0044758
X00716Y0046364
X00724
X00732
X0074
Y004796
X00732
X00724
X00716
X0072402Y0045562
X0073202
X00692Y004556
Y004476
X00692Y004396
X00716Y004076
X00724
X00732
X0074
X00756Y004236
X00716Y003916
X0076433Y00342
X0080875Y00348
X00891Y00359
X00951Y00354
X0095675Y0037986
X0094
X0097475Y0040682
X0097325Y0052324
X009617Y00548
X00928Y0053008
X0085032Y0055677
X0084466Y0055111
X00839Y0054546
X0082813Y0057775
X0082Y00583
X00781Y00573
X007708Y00568
Y0051734
X007608
X0075187Y0052324
X0074383Y0051723
X007247Y0052324
X0071413Y0052317
X00709Y0051734
X0071952Y0055524
X007255Y00619
X00709
X007158Y0062717
X0074362Y00635
X0075187Y0064474
X007608Y00655
X00781Y0051723
X00891Y00619
X009617Y0069259
X01133Y00672
X01192Y006728
Y00682
X01173Y0062645
X011883Y0059895
X0125Y0060272
X012703Y005995
Y0058307
X0129725Y00594
X0130425
X0131125
X01317Y0062146
X0128184
X0135975Y006214
X0132925Y005387
X0129875Y00527
X0129175Y0052833
X0130627Y0050166
X012825Y004924
X012895Y0047654
X01316Y004659
X01306Y0043629
X012985
X0126769Y0042526
X012777Y0039974
X013294Y003817
X0123185Y003516
Y0045479
X0123225Y004961
X0124237Y0053371
X011729Y005
X0117786Y0048622
X0114088Y0050499
X0112284Y0049227
X0109972Y0050756
X01092Y0051492
X0105Y0053008
X01032Y0052433
X0101225Y0052267
X0101225Y0049227
X0100375Y0049304
X0099574Y0049142
X0098875Y0049177
X0098175Y0049214
X00982Y0045464
Y00447
X0098225Y0043404
X0098625Y0040516
X0099338
X0100225Y0040485
X0100825Y0036593
X0103229
X0105
X0109684Y0041393
X01092Y0044688
X0109954Y0045359
X01066Y0047604
X0099525Y0046764
X010217Y0054795
X0108886Y0060745
X011044Y0059895
X0112104Y0039242
X0113604
X01347Y0050204
X0140609Y0051418
X01459Y0049261
X01453Y00476
X01447Y00447
X01472Y00442
X01464Y00426
X01471Y00399
X01475Y0058125
X01469Y00587
X01453Y0063
X01447Y00655
X01463Y00704
X01476Y00754
X01469Y00805
X01405Y0079132
X01337Y0086083
Y0086925
Y0087725
X01216Y00893
X012235Y0094422
X0123799
X010415Y00943
Y0093491
Y00926
Y009184
Y00909
X01055Y0080832
Y0080023
Y0079132
Y0078372
Y0077432
X011035Y0077182
Y0078122
Y0078882
Y0079773
Y0080582
X011026Y0083
X01095
X0108609
X01078
X01112
X01195Y007403
X00971Y0086543
Y0087543
Y0088543
X007648Y0094075
X0075028Y009538
X00709Y0095375
X00635Y008085
Y0080025
Y0079275
Y007855
X00588
Y0079275
Y0080025
Y008085
X0075477Y00763
X00503Y00832
X00519Y0088883
X00535Y009375
X00573Y00941
Y0093275
Y0092525
Y00918
X00411Y0090483
Y009545
Y0084875
X00262Y00858
Y00914
Y00962
X00265Y00795
X00135Y00823
X0009453Y00767
X00085
X0009905Y007295
X001265Y0091325
T02
X010192Y0004663
X0106252Y0004725
X0109507Y0006375
X0109087Y0008748
Y0012754
X0113227Y0004942
X0115943Y0004689
X0114827Y0006509
X0121725Y00062
X00891Y0020699
Y0021616
X0083446Y0019771
X0083717Y0018427
X0084275Y001735
X00795
X0078875Y0018413
X002374Y0021454
X0021Y0021708
X0021225Y0029095
X00238Y0029095
X001523
Y0021708
X00152Y0036713
X0021Y0036475
X0023377
X003512Y0034149
X0037106
X0075623Y0038342
X0076966Y0037986
X00793Y0038369
X0082583Y0038425
X0092175Y0041381
X00698Y00716
X011047Y006345
X0113226Y0062636
X011329Y0060012
X0112474
X0112579Y0053147
X0113374
X0114068
X011155
X0110537Y0054295
X01226Y0090363
X0125225
X0128343
X0131501
X00944Y00909
X00902
X0086
X0083
X00748Y00895
X0069725Y0096575
T03
X000863Y0043825
Y0044625
Y0045425
X000933Y0045025
Y0045825
Y0046625
Y0047425
Y0048225
Y0049025
X000863Y0048625
Y0047825
Y0047025
X000933Y0044225
Y0043425
T05
X014962Y001063
Y001317
Y001571
Y001825
Y002079
Y002333
Y002587
Y002841
Y003095
X01547
Y002841
Y002587
Y002333
Y002079
Y001825
Y001571
Y001317
Y001063
X0101745Y003098
X0099512
X0097175
X0087752Y0026578
X0085677
X0083602Y0026623
X006323Y000997
X006069Y000997
X005815
Y000743
X006069
X006323Y000743
X005561Y000743
Y000997
X005307
Y000743
X005053
Y000997
X004799
Y000743
X004545
X004291
Y000997
X004545
X004037Y000997
Y000743
X002714Y000855
X00246
X001904
X00165
X00092Y00193
Y002184
Y002438
Y002692
Y002946
Y0032
X00214Y00638
Y007
Y00726
X0094974Y0048104
X014962Y004873
Y005127
Y005381
Y005635
Y005889
Y006143
Y006397
Y006651
Y006905
Y007159
X01547
Y006905
Y006651
Y006397
Y006143
Y005889
Y005635
Y005381
Y005127
Y004873
Y004619
Y004365
Y004111
Y003857
Y003603
Y003349
X014962
Y003603
Y003857
Y004111
Y004365
Y004619
Y007413
Y007667
Y007921
Y008175
Y008429
Y008683
Y008937
X01547
Y008683
Y008429
Y008175
Y007921
Y007667
Y007413
T06
X014Y0008
X001
X014Y0092
T07
X015724Y000555
Y009445
M30
