ISO-10303-21;
HEADER;
FILE_DESCRIPTION( ( 'Unknown' ), '1' );
FILE_NAME( 'I:/User_Groups_Only/17_EMC_Product_&_Development/Article_Master/eiCan/Assembly/As_SSTIE/Master_Data/01_CAD_drawing/1_Drawing/971060321/971060321.stp', 'Unknown', ( 'Unknown' ), ( 'Unknown' ), 'PSStep 18.0.17', 'Unknown', '  ' );
FILE_SCHEMA( ( 'AUTOMOTIVE_DESIGN { 1 0 10303 214 1 1 1 1 }' ) );
ENDSEC;
DATA;
#1 = MECHANICAL_DESIGN_GEOMETRIC_PRESENTATION_REPRESENTATION( ' ', ( #10, #11, #12, #13, #14, #15, #16, #17, #18, #19, #20, #21, #22, #23, #24, #25, #26, #27, #28, #29, #30, #31, #32, #33, #34 ), #6 );
#2 = PRODUCT_DEFINITION_CONTEXT( '', #35, 'design' );
#3 = APPLICATION_PROTOCOL_DEFINITION( 'international standard', 'automotive_design', 2001, #35 );
#4 = PRODUCT_CATEGORY_RELATIONSHIP( 'NONE', 'NONE', #36, #37 );
#5 = SHAPE_DEFINITION_REPRESENTATION( #38, #39 );
#6 =  ( GEOMETRIC_REPRESENTATION_CONTEXT( 3 )GLOBAL_UNCERTAINTY_ASSIGNED_CONTEXT( ( #42 ) )GLOBAL_UNIT_ASSIGNED_CONTEXT( ( #44, #45, #46 ) )REPRESENTATION_CONTEXT( 'NONE', 'WORKSPACE' ) );
#10 = STYLED_ITEM( '', ( #48 ), #49 );
#11 = STYLED_ITEM( '', ( #50 ), #51 );
#12 = STYLED_ITEM( '', ( #52 ), #53 );
#13 = STYLED_ITEM( '', ( #54 ), #55 );
#14 = STYLED_ITEM( '', ( #56 ), #57 );
#15 = STYLED_ITEM( '', ( #58 ), #59 );
#16 = STYLED_ITEM( '', ( #60 ), #61 );
#17 = STYLED_ITEM( '', ( #62 ), #63 );
#18 = STYLED_ITEM( '', ( #64 ), #65 );
#19 = STYLED_ITEM( '', ( #66 ), #67 );
#20 = STYLED_ITEM( '', ( #68 ), #69 );
#21 = STYLED_ITEM( '', ( #70 ), #71 );
#22 = STYLED_ITEM( '', ( #72 ), #73 );
#23 = STYLED_ITEM( '', ( #74 ), #75 );
#24 = STYLED_ITEM( '', ( #76 ), #77 );
#25 = STYLED_ITEM( '', ( #78 ), #79 );
#26 = STYLED_ITEM( '', ( #80 ), #81 );
#27 = STYLED_ITEM( '', ( #82 ), #83 );
#28 = STYLED_ITEM( '', ( #84 ), #85 );
#29 = STYLED_ITEM( '', ( #86 ), #87 );
#30 = STYLED_ITEM( '', ( #88 ), #89 );
#31 = STYLED_ITEM( '', ( #90 ), #91 );
#32 = STYLED_ITEM( '', ( #92 ), #93 );
#33 = STYLED_ITEM( '', ( #94 ), #95 );
#34 = STYLED_ITEM( '', ( #96 ), #97 );
#35 = APPLICATION_CONTEXT( 'core data for automotive mechanical design processes' );
#36 = PRODUCT_CATEGORY( 'part', 'NONE' );
#37 = PRODUCT_RELATED_PRODUCT_CATEGORY( 'detail', ' ', ( #98 ) );
#38 = PRODUCT_DEFINITION_SHAPE( 'NONE', 'NONE', #99 );
#39 = ADVANCED_BREP_SHAPE_REPRESENTATION( '1', ( #100, #101 ), #6 );
#42 = UNCERTAINTY_MEASURE_WITH_UNIT( LENGTH_MEASURE( 0.00100000000000000 ), #44, '', '' );
#44 =  ( CONVERSION_BASED_UNIT( 'MILLIMETRE', #104 )LENGTH_UNIT(  )NAMED_UNIT( #107 ) );
#45 =  ( NAMED_UNIT( #109 )PLANE_ANGLE_UNIT(  )SI_UNIT( $, .RADIAN. ) );
#46 =  ( NAMED_UNIT( #109 )SI_UNIT( $, .STERADIAN. )SOLID_ANGLE_UNIT(  ) );
#48 = PRESENTATION_STYLE_ASSIGNMENT( ( #115 ) );
#49 = ADVANCED_FACE( '', ( #116, #117 ), #118, .F. );
#50 = PRESENTATION_STYLE_ASSIGNMENT( ( #119 ) );
#51 = ADVANCED_FACE( '', ( #120 ), #121, .F. );
#52 = PRESENTATION_STYLE_ASSIGNMENT( ( #122 ) );
#53 = ADVANCED_FACE( '', ( #123 ), #124, .T. );
#54 = PRESENTATION_STYLE_ASSIGNMENT( ( #125 ) );
#55 = ADVANCED_FACE( '', ( #126, #127 ), #128, .T. );
#56 = PRESENTATION_STYLE_ASSIGNMENT( ( #129 ) );
#57 = ADVANCED_FACE( '', ( #130, #131 ), #132, .T. );
#58 = PRESENTATION_STYLE_ASSIGNMENT( ( #133 ) );
#59 = ADVANCED_FACE( '', ( #134, #135 ), #136, .F. );
#60 = PRESENTATION_STYLE_ASSIGNMENT( ( #137 ) );
#61 = ADVANCED_FACE( '', ( #138, #139 ), #140, .F. );
#62 = PRESENTATION_STYLE_ASSIGNMENT( ( #141 ) );
#63 = ADVANCED_FACE( '', ( #142 ), #143, .T. );
#64 = PRESENTATION_STYLE_ASSIGNMENT( ( #144 ) );
#65 = ADVANCED_FACE( '', ( #145, #146 ), #147, .T. );
#66 = PRESENTATION_STYLE_ASSIGNMENT( ( #148 ) );
#67 = ADVANCED_FACE( '', ( #149 ), #150, .T. );
#68 = PRESENTATION_STYLE_ASSIGNMENT( ( #151 ) );
#69 = ADVANCED_FACE( '', ( #152, #153 ), #154, .F. );
#70 = PRESENTATION_STYLE_ASSIGNMENT( ( #155 ) );
#71 = ADVANCED_FACE( '', ( #156, #157 ), #158, .F. );
#72 = PRESENTATION_STYLE_ASSIGNMENT( ( #159 ) );
#73 = ADVANCED_FACE( '', ( #160 ), #161, .T. );
#74 = PRESENTATION_STYLE_ASSIGNMENT( ( #162 ) );
#75 = ADVANCED_FACE( '', ( #163 ), #164, .F. );
#76 = PRESENTATION_STYLE_ASSIGNMENT( ( #165 ) );
#77 = ADVANCED_FACE( '', ( #166, #167 ), #168, .F. );
#78 = PRESENTATION_STYLE_ASSIGNMENT( ( #169 ) );
#79 = ADVANCED_FACE( '', ( #170 ), #171, .F. );
#80 = PRESENTATION_STYLE_ASSIGNMENT( ( #172 ) );
#81 = ADVANCED_FACE( '', ( #173, #174 ), #175, .F. );
#82 = PRESENTATION_STYLE_ASSIGNMENT( ( #176 ) );
#83 = ADVANCED_FACE( '', ( #177 ), #178, .F. );
#84 = PRESENTATION_STYLE_ASSIGNMENT( ( #179 ) );
#85 = ADVANCED_FACE( '', ( #180 ), #181, .T. );
#86 = PRESENTATION_STYLE_ASSIGNMENT( ( #182 ) );
#87 = ADVANCED_FACE( '', ( #183 ), #184, .T. );
#88 = PRESENTATION_STYLE_ASSIGNMENT( ( #185 ) );
#89 = ADVANCED_FACE( '', ( #186 ), #187, .F. );
#90 = PRESENTATION_STYLE_ASSIGNMENT( ( #188 ) );
#91 = ADVANCED_FACE( '', ( #189, #190 ), #191, .T. );
#92 = PRESENTATION_STYLE_ASSIGNMENT( ( #192 ) );
#93 = ADVANCED_FACE( '', ( #193 ), #194, .T. );
#94 = PRESENTATION_STYLE_ASSIGNMENT( ( #195 ) );
#95 = ADVANCED_FACE( '', ( #196 ), #197, .F. );
#96 = PRESENTATION_STYLE_ASSIGNMENT( ( #198 ) );
#97 = ADVANCED_FACE( '', ( #199, #200 ), #201, .T. );
#98 = PRODUCT( '1', '1', 'PART-1-DESC', ( #202 ) );
#99 = PRODUCT_DEFINITION( 'NONE', 'NONE', #203, #2 );
#100 = MANIFOLD_SOLID_BREP( '1', #204 );
#101 = AXIS2_PLACEMENT_3D( '', #205, #206, #207 );
#104 = LENGTH_MEASURE_WITH_UNIT( LENGTH_MEASURE( 1.00000000000000 ), #208 );
#107 = DIMENSIONAL_EXPONENTS( 1.00000000000000, 0.000000000000000, 0.000000000000000, 0.000000000000000, 0.000000000000000, 0.000000000000000, 0.000000000000000 );
#109 = DIMENSIONAL_EXPONENTS( 0.000000000000000, 0.000000000000000, 0.000000000000000, 0.000000000000000, 0.000000000000000, 0.000000000000000, 0.000000000000000 );
#115 = SURFACE_STYLE_USAGE( .BOTH., #209 );
#116 = FACE_BOUND( '', #210, .T. );
#117 = FACE_OUTER_BOUND( '', #211, .T. );
#118 = PLANE( '', #212 );
#119 = SURFACE_STYLE_USAGE( .BOTH., #213 );
#120 = FACE_OUTER_BOUND( '', #214, .T. );
#121 = PLANE( '', #215 );
#122 = SURFACE_STYLE_USAGE( .BOTH., #216 );
#123 = FACE_OUTER_BOUND( '', #217, .T. );
#124 = CONICAL_SURFACE( '', #218, 2.75000000000000, 0.785398163400000 );
#125 = SURFACE_STYLE_USAGE( .BOTH., #219 );
#126 = FACE_OUTER_BOUND( '', #220, .T. );
#127 = FACE_OUTER_BOUND( '', #221, .T. );
#128 = CYLINDRICAL_SURFACE( '', #222, 1.50000000000000 );
#129 = SURFACE_STYLE_USAGE( .BOTH., #223 );
#130 = FACE_OUTER_BOUND( '', #224, .T. );
#131 = FACE_OUTER_BOUND( '', #225, .T. );
#132 = CYLINDRICAL_SURFACE( '', #226, 1.06698729810000 );
#133 = SURFACE_STYLE_USAGE( .BOTH., #227 );
#134 = FACE_OUTER_BOUND( '', #228, .T. );
#135 = FACE_OUTER_BOUND( '', #229, .T. );
#136 = TOROIDAL_SURFACE( '', #230, 1.26698729810000, 0.200000000000000 );
#137 = SURFACE_STYLE_USAGE( .BOTH., #231 );
#138 = FACE_OUTER_BOUND( '', #232, .T. );
#139 = FACE_OUTER_BOUND( '', #233, .T. );
#140 = TOROIDAL_SURFACE( '', #234, 1.26698729810000, 0.200000000000000 );
#141 = SURFACE_STYLE_USAGE( .BOTH., #235 );
#142 = FACE_OUTER_BOUND( '', #236, .T. );
#143 = CONICAL_SURFACE( '', #237, 2.75000000000000, 0.785398163400000 );
#144 = SURFACE_STYLE_USAGE( .BOTH., #238 );
#145 = FACE_BOUND( '', #239, .T. );
#146 = FACE_OUTER_BOUND( '', #240, .T. );
#147 = CONICAL_SURFACE( '', #241, 1.06698729810000, 0.523598775600000 );
#148 = SURFACE_STYLE_USAGE( .BOTH., #242 );
#149 = FACE_OUTER_BOUND( '', #243, .T. );
#150 = CONICAL_SURFACE( '', #244, 2.75000000000000, 0.785398163400000 );
#151 = SURFACE_STYLE_USAGE( .BOTH., #245 );
#152 = FACE_OUTER_BOUND( '', #246, .T. );
#153 = FACE_OUTER_BOUND( '', #247, .T. );
#154 = CYLINDRICAL_SURFACE( '', #248, 1.22950000000000 );
#155 = SURFACE_STYLE_USAGE( .BOTH., #249 );
#156 = FACE_OUTER_BOUND( '', #250, .T. );
#157 = FACE_BOUND( '', #251, .T. );
#158 = CONICAL_SURFACE( '', #252, 1.22950000000000, 1.02974425870000 );
#159 = SURFACE_STYLE_USAGE( .BOTH., #253 );
#160 = FACE_OUTER_BOUND( '', #254, .T. );
#161 = PLANE( '', #255 );
#162 = SURFACE_STYLE_USAGE( .BOTH., #256 );
#163 = FACE_OUTER_BOUND( '', #257, .T. );
#164 = PLANE( '', #258 );
#165 = SURFACE_STYLE_USAGE( .BOTH., #259 );
#166 = FACE_OUTER_BOUND( '', #260, .T. );
#167 = FACE_OUTER_BOUND( '', #261, .T. );
#168 = CYLINDRICAL_SURFACE( '', #262, 1.22950000000000 );
#169 = SURFACE_STYLE_USAGE( .BOTH., #263 );
#170 = FACE_OUTER_BOUND( '', #264, .T. );
#171 = PLANE( '', #265 );
#172 = SURFACE_STYLE_USAGE( .BOTH., #266 );
#173 = FACE_BOUND( '', #267, .T. );
#174 = FACE_OUTER_BOUND( '', #268, .T. );
#175 = CONICAL_SURFACE( '', #269, 1.42950000000000, 0.785398163400000 );
#176 = SURFACE_STYLE_USAGE( .BOTH., #270 );
#177 = FACE_OUTER_BOUND( '', #271, .T. );
#178 = PLANE( '', #272 );
#179 = SURFACE_STYLE_USAGE( .BOTH., #273 );
#180 = FACE_OUTER_BOUND( '', #274, .T. );
#181 = CONICAL_SURFACE( '', #275, 2.75000000000000, 0.785398163400000 );
#182 = SURFACE_STYLE_USAGE( .BOTH., #276 );
#183 = FACE_OUTER_BOUND( '', #277, .T. );
#184 = CONICAL_SURFACE( '', #278, 2.75000000000000, 0.785398163400000 );
#185 = SURFACE_STYLE_USAGE( .BOTH., #279 );
#186 = FACE_OUTER_BOUND( '', #280, .T. );
#187 = PLANE( '', #281 );
#188 = SURFACE_STYLE_USAGE( .BOTH., #282 );
#189 = FACE_BOUND( '', #283, .T. );
#190 = FACE_OUTER_BOUND( '', #284, .T. );
#191 = PLANE( '', #285 );
#192 = SURFACE_STYLE_USAGE( .BOTH., #286 );
#193 = FACE_OUTER_BOUND( '', #287, .T. );
#194 = CONICAL_SURFACE( '', #288, 2.75000000000000, 0.785398163400000 );
#195 = SURFACE_STYLE_USAGE( .BOTH., #289 );
#196 = FACE_OUTER_BOUND( '', #290, .T. );
#197 = PLANE( '', #291 );
#198 = SURFACE_STYLE_USAGE( .BOTH., #292 );
#199 = FACE_BOUND( '', #293, .T. );
#200 = FACE_OUTER_BOUND( '', #294, .T. );
#201 = CONICAL_SURFACE( '', #295, 1.50000000000000, 0.785398163400000 );
#202 = PRODUCT_CONTEXT( '', #35, 'mechanical' );
#203 = PRODUCT_DEFINITION_FORMATION_WITH_SPECIFIED_SOURCE( ' ', 'NONE', #98, .NOT_KNOWN. );
#204 = CLOSED_SHELL( '', ( #53, #83, #79, #95, #89, #51, #49, #91, #57, #65, #55, #73, #69, #81, #75, #59, #61, #97, #85, #63, #87, #67, #93, #71, #77 ) );
#205 = CARTESIAN_POINT( '', ( 0.000000000000000, 0.000000000000000, 0.000000000000000 ) );
#206 = DIRECTION( '', ( 0.000000000000000, 0.000000000000000, 1.00000000000000 ) );
#207 = DIRECTION( '', ( 1.00000000000000, 0.000000000000000, 0.000000000000000 ) );
#208 =  ( LENGTH_UNIT(  )NAMED_UNIT( #107 )SI_UNIT( .MILLI., .METRE. ) );
#209 = SURFACE_SIDE_STYLE( '', ( #297 ) );
#210 = EDGE_LOOP( '', ( #298 ) );
#211 = EDGE_LOOP( '', ( #299, #300, #301, #302, #303, #304 ) );
#212 = AXIS2_PLACEMENT_3D( '', #305, #306, #307 );
#213 = SURFACE_SIDE_STYLE( '', ( #308 ) );
#214 = EDGE_LOOP( '', ( #309, #310, #311, #312, #313 ) );
#215 = AXIS2_PLACEMENT_3D( '', #314, #315, #316 );
#216 = SURFACE_SIDE_STYLE( '', ( #317 ) );
#217 = EDGE_LOOP( '', ( #318, #319, #320 ) );
#218 = AXIS2_PLACEMENT_3D( '', #321, #322, #323 );
#219 = SURFACE_SIDE_STYLE( '', ( #324 ) );
#220 = EDGE_LOOP( '', ( #325 ) );
#221 = EDGE_LOOP( '', ( #326 ) );
#222 = AXIS2_PLACEMENT_3D( '', #327, #328, #329 );
#223 = SURFACE_SIDE_STYLE( '', ( #330 ) );
#224 = EDGE_LOOP( '', ( #331 ) );
#225 = EDGE_LOOP( '', ( #332 ) );
#226 = AXIS2_PLACEMENT_3D( '', #333, #334, #335 );
#227 = SURFACE_SIDE_STYLE( '', ( #336 ) );
#228 = EDGE_LOOP( '', ( #337 ) );
#229 = EDGE_LOOP( '', ( #338 ) );
#230 = AXIS2_PLACEMENT_3D( '', #339, #340, #341 );
#231 = SURFACE_SIDE_STYLE( '', ( #342 ) );
#232 = EDGE_LOOP( '', ( #343 ) );
#233 = EDGE_LOOP( '', ( #344 ) );
#234 = AXIS2_PLACEMENT_3D( '', #345, #346, #347 );
#235 = SURFACE_SIDE_STYLE( '', ( #348 ) );
#236 = EDGE_LOOP( '', ( #349, #350, #351 ) );
#237 = AXIS2_PLACEMENT_3D( '', #352, #353, #354 );
#238 = SURFACE_SIDE_STYLE( '', ( #355 ) );
#239 = EDGE_LOOP( '', ( #356 ) );
#240 = EDGE_LOOP( '', ( #357 ) );
#241 = AXIS2_PLACEMENT_3D( '', #358, #359, #360 );
#242 = SURFACE_SIDE_STYLE( '', ( #361 ) );
#243 = EDGE_LOOP( '', ( #362, #363, #364 ) );
#244 = AXIS2_PLACEMENT_3D( '', #365, #366, #367 );
#245 = SURFACE_SIDE_STYLE( '', ( #368 ) );
#246 = EDGE_LOOP( '', ( #369 ) );
#247 = EDGE_LOOP( '', ( #370 ) );
#248 = AXIS2_PLACEMENT_3D( '', #371, #372, #373 );
#249 = SURFACE_SIDE_STYLE( '', ( #374 ) );
#250 = EDGE_LOOP( '', ( #375 ) );
#251 = VERTEX_LOOP( '', #376 );
#252 = AXIS2_PLACEMENT_3D( '', #377, #378, #379 );
#253 = SURFACE_SIDE_STYLE( '', ( #380 ) );
#254 = EDGE_LOOP( '', ( #381 ) );
#255 = AXIS2_PLACEMENT_3D( '', #382, #383, #384 );
#256 = SURFACE_SIDE_STYLE( '', ( #385 ) );
#257 = EDGE_LOOP( '', ( #386, #387, #388, #389, #390 ) );
#258 = AXIS2_PLACEMENT_3D( '', #391, #392, #393 );
#259 = SURFACE_SIDE_STYLE( '', ( #394 ) );
#260 = EDGE_LOOP( '', ( #395 ) );
#261 = EDGE_LOOP( '', ( #396 ) );
#262 = AXIS2_PLACEMENT_3D( '', #397, #398, #399 );
#263 = SURFACE_SIDE_STYLE( '', ( #400 ) );
#264 = EDGE_LOOP( '', ( #401, #402, #403, #404, #405 ) );
#265 = AXIS2_PLACEMENT_3D( '', #406, #407, #408 );
#266 = SURFACE_SIDE_STYLE( '', ( #409 ) );
#267 = EDGE_LOOP( '', ( #410 ) );
#268 = EDGE_LOOP( '', ( #411 ) );
#269 = AXIS2_PLACEMENT_3D( '', #412, #413, #414 );
#270 = SURFACE_SIDE_STYLE( '', ( #415 ) );
#271 = EDGE_LOOP( '', ( #416, #417, #418, #419, #420 ) );
#272 = AXIS2_PLACEMENT_3D( '', #421, #422, #423 );
#273 = SURFACE_SIDE_STYLE( '', ( #424 ) );
#274 = EDGE_LOOP( '', ( #425, #426, #427 ) );
#275 = AXIS2_PLACEMENT_3D( '', #428, #429, #430 );
#276 = SURFACE_SIDE_STYLE( '', ( #431 ) );
#277 = EDGE_LOOP( '', ( #432, #433, #434 ) );
#278 = AXIS2_PLACEMENT_3D( '', #435, #436, #437 );
#279 = SURFACE_SIDE_STYLE( '', ( #438 ) );
#280 = EDGE_LOOP( '', ( #439, #440, #441, #442, #443 ) );
#281 = AXIS2_PLACEMENT_3D( '', #444, #445, #446 );
#282 = SURFACE_SIDE_STYLE( '', ( #447 ) );
#283 = EDGE_LOOP( '', ( #448 ) );
#284 = EDGE_LOOP( '', ( #449, #450, #451, #452, #453, #454 ) );
#285 = AXIS2_PLACEMENT_3D( '', #455, #456, #457 );
#286 = SURFACE_SIDE_STYLE( '', ( #458 ) );
#287 = EDGE_LOOP( '', ( #459, #460, #461 ) );
#288 = AXIS2_PLACEMENT_3D( '', #462, #463, #464 );
#289 = SURFACE_SIDE_STYLE( '', ( #465 ) );
#290 = EDGE_LOOP( '', ( #466, #467, #468, #469, #470 ) );
#291 = AXIS2_PLACEMENT_3D( '', #471, #472, #473 );
#292 = SURFACE_SIDE_STYLE( '', ( #474 ) );
#293 = EDGE_LOOP( '', ( #475 ) );
#294 = EDGE_LOOP( '', ( #476 ) );
#295 = AXIS2_PLACEMENT_3D( '', #477, #478, #479 );
#297 = SURFACE_STYLE_FILL_AREA( #480 );
#298 = ORIENTED_EDGE( '', *, *, #481, .T. );
#299 = ORIENTED_EDGE( '', *, *, #482, .F. );
#300 = ORIENTED_EDGE( '', *, *, #483, .F. );
#301 = ORIENTED_EDGE( '', *, *, #484, .F. );
#302 = ORIENTED_EDGE( '', *, *, #485, .F. );
#303 = ORIENTED_EDGE( '', *, *, #486, .F. );
#304 = ORIENTED_EDGE( '', *, *, #487, .F. );
#305 = CARTESIAN_POINT( '', ( 0.000000000000000, 0.000000000000000, 0.000000000000000 ) );
#306 = DIRECTION( '', ( 0.000000000000000, 0.000000000000000, 1.00000000000000 ) );
#307 = DIRECTION( '', ( 1.00000000000000, 0.000000000000000, 0.000000000000000 ) );
#308 = SURFACE_STYLE_FILL_AREA( #488 );
#309 = ORIENTED_EDGE( '', *, *, #489, .F. );
#310 = ORIENTED_EDGE( '', *, *, #490, .F. );
#311 = ORIENTED_EDGE( '', *, *, #491, .F. );
#312 = ORIENTED_EDGE( '', *, *, #492, .T. );
#313 = ORIENTED_EDGE( '', *, *, #493, .F. );
#314 = CARTESIAN_POINT( '', ( 3.17542648054294, -2.16840434497101E-016, 6.00000000000000 ) );
#315 = DIRECTION( '', ( -0.866025403784439, -0.500000000000000, 0.000000000000000 ) );
#316 = DIRECTION( '', ( 0.500000000000000, -0.866025403784439, 0.000000000000000 ) );
#317 = SURFACE_STYLE_FILL_AREA( #494 );
#318 = ORIENTED_EDGE( '', *, *, #495, .T. );
#319 = ORIENTED_EDGE( '', *, *, #486, .T. );
#320 = ORIENTED_EDGE( '', *, *, #496, .T. );
#321 = CARTESIAN_POINT( '', ( 0.000000000000000, 0.000000000000000, 0.000000000000000 ) );
#322 = DIRECTION( '', ( -0.000000000000000, -0.000000000000000, 1.00000000000000 ) );
#323 = DIRECTION( '', ( 1.00000000000000, 0.000000000000000, 0.000000000000000 ) );
#324 = SURFACE_STYLE_FILL_AREA( #497 );
#325 = ORIENTED_EDGE( '', *, *, #498, .T. );
#326 = ORIENTED_EDGE( '', *, *, #499, .F. );
#327 = CARTESIAN_POINT( '', ( 1.45244597725756E-016, 0.000000000000000, 11.0000000000000 ) );
#328 = DIRECTION( '', ( 1.68665076409874E-015, -0.000000000000000, 1.00000000000000 ) );
#329 = DIRECTION( '', ( -1.00000000000000, 0.000000000000000, 1.68665076409874E-015 ) );
#330 = SURFACE_STYLE_FILL_AREA( #500 );
#331 = ORIENTED_EDGE( '', *, *, #501, .T. );
#332 = ORIENTED_EDGE( '', *, *, #502, .T. );
#333 = CARTESIAN_POINT( '', ( 1.45244597725756E-016, 0.000000000000000, 11.0000000000000 ) );
#334 = DIRECTION( '', ( 1.68665076409874E-015, -0.000000000000000, 1.00000000000000 ) );
#335 = DIRECTION( '', ( -1.00000000000000, 0.000000000000000, 1.68665076409874E-015 ) );
#336 = SURFACE_STYLE_FILL_AREA( #503 );
#337 = ORIENTED_EDGE( '', *, *, #504, .F. );
#338 = ORIENTED_EDGE( '', *, *, #502, .F. );
#339 = CARTESIAN_POINT( '', ( -7.95067906994816E-015, 0.000000000000000, 6.20000000000000 ) );
#340 = DIRECTION( '', ( 0.000000000000000, 0.000000000000000, 1.00000000000000 ) );
#341 = DIRECTION( '', ( 1.00000000000000, 0.000000000000000, 0.000000000000000 ) );
#342 = SURFACE_STYLE_FILL_AREA( #505 );
#343 = ORIENTED_EDGE( '', *, *, #506, .F. );
#344 = ORIENTED_EDGE( '', *, *, #501, .F. );
#345 = CARTESIAN_POINT( '', ( -7.53507118274926E-015, 0.000000000000000, 6.44641016151377 ) );
#346 = DIRECTION( '', ( -1.68665076409873E-015, 0.000000000000000, -1.00000000000000 ) );
#347 = DIRECTION( '', ( -1.00000000000000, 0.000000000000000, 1.68665076409873E-015 ) );
#348 = SURFACE_STYLE_FILL_AREA( #507 );
#349 = ORIENTED_EDGE( '', *, *, #508, .T. );
#350 = ORIENTED_EDGE( '', *, *, #485, .T. );
#351 = ORIENTED_EDGE( '', *, *, #509, .T. );
#352 = CARTESIAN_POINT( '', ( 0.000000000000000, 0.000000000000000, 0.000000000000000 ) );
#353 = DIRECTION( '', ( -0.000000000000000, -0.000000000000000, 1.00000000000000 ) );
#354 = DIRECTION( '', ( 1.00000000000000, 0.000000000000000, 0.000000000000000 ) );
#355 = SURFACE_STYLE_FILL_AREA( #510 );
#356 = ORIENTED_EDGE( '', *, *, #506, .T. );
#357 = ORIENTED_EDGE( '', *, *, #499, .T. );
#358 = CARTESIAN_POINT( '', ( -7.44468384071854E-015, 0.000000000000000, 6.50000000000000 ) );
#359 = DIRECTION( '', ( 1.68665076409874E-015, -0.000000000000000, 1.00000000000000 ) );
#360 = DIRECTION( '', ( 1.00000000000000, 0.000000000000000, -1.68665076409874E-015 ) );
#361 = SURFACE_STYLE_FILL_AREA( #511 );
#362 = ORIENTED_EDGE( '', *, *, #512, .T. );
#363 = ORIENTED_EDGE( '', *, *, #513, .T. );
#364 = ORIENTED_EDGE( '', *, *, #482, .T. );
#365 = CARTESIAN_POINT( '', ( 0.000000000000000, 0.000000000000000, 0.000000000000000 ) );
#366 = DIRECTION( '', ( -0.000000000000000, -0.000000000000000, 1.00000000000000 ) );
#367 = DIRECTION( '', ( 1.00000000000000, 0.000000000000000, 0.000000000000000 ) );
#368 = SURFACE_STYLE_FILL_AREA( #514 );
#369 = ORIENTED_EDGE( '', *, *, #515, .F. );
#370 = ORIENTED_EDGE( '', *, *, #516, .T. );
#371 = CARTESIAN_POINT( '', ( 0.000000000000000, 0.000000000000000, 0.000000000000000 ) );
#372 = DIRECTION( '', ( -0.000000000000000, 0.000000000000000, -1.00000000000000 ) );
#373 = DIRECTION( '', ( 0.000000000000000, 1.00000000000000, 0.000000000000000 ) );
#374 = SURFACE_STYLE_FILL_AREA( #517 );
#375 = ORIENTED_EDGE( '', *, *, #518, .F. );
#376 = VERTEX_POINT( '', #519 );
#377 = CARTESIAN_POINT( '', ( 0.000000000000000, 0.000000000000000, 4.75000000000000 ) );
#378 = DIRECTION( '', ( 0.000000000000000, -0.000000000000000, -1.00000000000000 ) );
#379 = DIRECTION( '', ( 0.000000000000000, -1.00000000000000, 0.000000000000000 ) );
#380 = SURFACE_STYLE_FILL_AREA( #520 );
#381 = ORIENTED_EDGE( '', *, *, #521, .T. );
#382 = CARTESIAN_POINT( '', ( -1.50000000000000, 0.000000000000000, 12.0000000000000 ) );
#383 = DIRECTION( '', ( 1.68665076409874E-015, 0.000000000000000, 1.00000000000000 ) );
#384 = DIRECTION( '', ( 1.00000000000000, 0.000000000000000, -1.68665076409874E-015 ) );
#385 = SURFACE_STYLE_FILL_AREA( #522 );
#386 = ORIENTED_EDGE( '', *, *, #513, .F. );
#387 = ORIENTED_EDGE( '', *, *, #523, .F. );
#388 = ORIENTED_EDGE( '', *, *, #524, .F. );
#389 = ORIENTED_EDGE( '', *, *, #490, .T. );
#390 = ORIENTED_EDGE( '', *, *, #525, .F. );
#391 = CARTESIAN_POINT( '', ( 1.58771324027147, 2.75000000000000, 6.00000000000000 ) );
#392 = DIRECTION( '', ( -2.45833297975171E-015, -1.00000000000000, 0.000000000000000 ) );
#393 = DIRECTION( '', ( 1.00000000000000, -2.45833297975171E-015, 0.000000000000000 ) );
#394 = SURFACE_STYLE_FILL_AREA( #526 );
#395 = ORIENTED_EDGE( '', *, *, #518, .T. );
#396 = ORIENTED_EDGE( '', *, *, #515, .T. );
#397 = CARTESIAN_POINT( '', ( 0.000000000000000, 0.000000000000000, 0.000000000000000 ) );
#398 = DIRECTION( '', ( -0.000000000000000, 0.000000000000000, -1.00000000000000 ) );
#399 = DIRECTION( '', ( 0.000000000000000, 1.00000000000000, 0.000000000000000 ) );
#400 = SURFACE_STYLE_FILL_AREA( #527 );
#401 = ORIENTED_EDGE( '', *, *, #495, .F. );
#402 = ORIENTED_EDGE( '', *, *, #528, .F. );
#403 = ORIENTED_EDGE( '', *, *, #529, .F. );
#404 = ORIENTED_EDGE( '', *, *, #530, .T. );
#405 = ORIENTED_EDGE( '', *, *, #531, .F. );
#406 = CARTESIAN_POINT( '', ( -3.17542648054295, -2.16840434497101E-016, 6.00000000000000 ) );
#407 = DIRECTION( '', ( 0.866025403784438, 0.500000000000000, 0.000000000000000 ) );
#408 = DIRECTION( '', ( -0.500000000000000, 0.866025403784438, 0.000000000000000 ) );
#409 = SURFACE_STYLE_FILL_AREA( #532 );
#410 = ORIENTED_EDGE( '', *, *, #516, .F. );
#411 = ORIENTED_EDGE( '', *, *, #481, .F. );
#412 = CARTESIAN_POINT( '', ( 0.000000000000000, 0.000000000000000, 0.000000000000000 ) );
#413 = DIRECTION( '', ( 0.000000000000000, -0.000000000000000, -1.00000000000000 ) );
#414 = DIRECTION( '', ( 1.00000000000000, 0.000000000000000, 0.000000000000000 ) );
#415 = SURFACE_STYLE_FILL_AREA( #533 );
#416 = ORIENTED_EDGE( '', *, *, #534, .F. );
#417 = ORIENTED_EDGE( '', *, *, #530, .F. );
#418 = ORIENTED_EDGE( '', *, *, #535, .F. );
#419 = ORIENTED_EDGE( '', *, *, #523, .T. );
#420 = ORIENTED_EDGE( '', *, *, #512, .F. );
#421 = CARTESIAN_POINT( '', ( -1.58771324027147, 2.75000000000000, 6.00000000000000 ) );
#422 = DIRECTION( '', ( 0.866025403784438, -0.500000000000000, 0.000000000000000 ) );
#423 = DIRECTION( '', ( 0.500000000000000, 0.866025403784438, 0.000000000000000 ) );
#424 = SURFACE_STYLE_FILL_AREA( #536 );
#425 = ORIENTED_EDGE( '', *, *, #537, .T. );
#426 = ORIENTED_EDGE( '', *, *, #484, .T. );
#427 = ORIENTED_EDGE( '', *, *, #493, .T. );
#428 = CARTESIAN_POINT( '', ( 0.000000000000000, 0.000000000000000, 0.000000000000000 ) );
#429 = DIRECTION( '', ( -0.000000000000000, -0.000000000000000, 1.00000000000000 ) );
#430 = DIRECTION( '', ( 1.00000000000000, 0.000000000000000, 0.000000000000000 ) );
#431 = SURFACE_STYLE_FILL_AREA( #538 );
#432 = ORIENTED_EDGE( '', *, *, #531, .T. );
#433 = ORIENTED_EDGE( '', *, *, #534, .T. );
#434 = ORIENTED_EDGE( '', *, *, #487, .T. );
#435 = CARTESIAN_POINT( '', ( 0.000000000000000, 0.000000000000000, 0.000000000000000 ) );
#436 = DIRECTION( '', ( -0.000000000000000, -0.000000000000000, 1.00000000000000 ) );
#437 = DIRECTION( '', ( 1.00000000000000, 0.000000000000000, 0.000000000000000 ) );
#438 = SURFACE_STYLE_FILL_AREA( #539 );
#439 = ORIENTED_EDGE( '', *, *, #537, .F. );
#440 = ORIENTED_EDGE( '', *, *, #492, .F. );
#441 = ORIENTED_EDGE( '', *, *, #540, .F. );
#442 = ORIENTED_EDGE( '', *, *, #541, .T. );
#443 = ORIENTED_EDGE( '', *, *, #509, .F. );
#444 = CARTESIAN_POINT( '', ( 1.58771324027147, -2.75000000000000, 6.00000000000000 ) );
#445 = DIRECTION( '', ( -0.866025403784439, 0.500000000000000, 0.000000000000000 ) );
#446 = DIRECTION( '', ( -0.500000000000000, -0.866025403784439, 0.000000000000000 ) );
#447 = SURFACE_STYLE_FILL_AREA( #542 );
#448 = ORIENTED_EDGE( '', *, *, #504, .T. );
#449 = ORIENTED_EDGE( '', *, *, #524, .T. );
#450 = ORIENTED_EDGE( '', *, *, #535, .T. );
#451 = ORIENTED_EDGE( '', *, *, #529, .T. );
#452 = ORIENTED_EDGE( '', *, *, #543, .T. );
#453 = ORIENTED_EDGE( '', *, *, #540, .T. );
#454 = ORIENTED_EDGE( '', *, *, #491, .T. );
#455 = CARTESIAN_POINT( '', ( 0.000000000000000, 0.000000000000000, 6.00000000000000 ) );
#456 = DIRECTION( '', ( 0.000000000000000, 0.000000000000000, 1.00000000000000 ) );
#457 = DIRECTION( '', ( 1.00000000000000, 0.000000000000000, 0.000000000000000 ) );
#458 = SURFACE_STYLE_FILL_AREA( #544 );
#459 = ORIENTED_EDGE( '', *, *, #525, .T. );
#460 = ORIENTED_EDGE( '', *, *, #489, .T. );
#461 = ORIENTED_EDGE( '', *, *, #483, .T. );
#462 = CARTESIAN_POINT( '', ( 0.000000000000000, 0.000000000000000, 0.000000000000000 ) );
#463 = DIRECTION( '', ( -0.000000000000000, -0.000000000000000, 1.00000000000000 ) );
#464 = DIRECTION( '', ( 1.00000000000000, 0.000000000000000, 0.000000000000000 ) );
#465 = SURFACE_STYLE_FILL_AREA( #545 );
#466 = ORIENTED_EDGE( '', *, *, #508, .F. );
#467 = ORIENTED_EDGE( '', *, *, #541, .F. );
#468 = ORIENTED_EDGE( '', *, *, #543, .F. );
#469 = ORIENTED_EDGE( '', *, *, #528, .T. );
#470 = ORIENTED_EDGE( '', *, *, #496, .F. );
#471 = CARTESIAN_POINT( '', ( -1.58771324027147, -2.75000000000000, 6.00000000000000 ) );
#472 = DIRECTION( '', ( 0.000000000000000, 1.00000000000000, 0.000000000000000 ) );
#473 = DIRECTION( '', ( 0.000000000000000, 0.000000000000000, 1.00000000000000 ) );
#474 = SURFACE_STYLE_FILL_AREA( #546 );
#475 = ORIENTED_EDGE( '', *, *, #521, .F. );
#476 = ORIENTED_EDGE( '', *, *, #498, .F. );
#477 = CARTESIAN_POINT( '', ( 1.49456520900474E-015, 0.000000000000000, 11.8000000000000 ) );
#478 = DIRECTION( '', ( -1.68665076409874E-015, 0.000000000000000, -1.00000000000000 ) );
#479 = DIRECTION( '', ( -1.00000000000000, 0.000000000000000, 1.68665076409874E-015 ) );
#480 = FILL_AREA_STYLE( '', ( #547 ) );
#481 = EDGE_CURVE( '', #548, #548, #549, .T. );
#482 = EDGE_CURVE( '', #550, #551, #552, .T. );
#483 = EDGE_CURVE( '', #553, #550, #554, .T. );
#484 = EDGE_CURVE( '', #555, #553, #556, .T. );
#485 = EDGE_CURVE( '', #557, #555, #558, .T. );
#486 = EDGE_CURVE( '', #559, #557, #560, .T. );
#487 = EDGE_CURVE( '', #551, #559, #561, .T. );
#488 = FILL_AREA_STYLE( '', ( #562 ) );
#489 = EDGE_CURVE( '', #563, #553, #564, .T. );
#490 = EDGE_CURVE( '', #565, #563, #566, .T. );
#491 = EDGE_CURVE( '', #567, #565, #568, .T. );
#492 = EDGE_CURVE( '', #567, #569, #570, .T. );
#493 = EDGE_CURVE( '', #553, #569, #571, .T. );
#494 = FILL_AREA_STYLE( '', ( #572 ) );
#495 = EDGE_CURVE( '', #573, #559, #574, .T. );
#496 = EDGE_CURVE( '', #557, #573, #575, .F. );
#497 = FILL_AREA_STYLE( '', ( #576 ) );
#498 = EDGE_CURVE( '', #577, #577, #578, .F. );
#499 = EDGE_CURVE( '', #579, #579, #580, .T. );
#500 = FILL_AREA_STYLE( '', ( #581 ) );
#501 = EDGE_CURVE( '', #582, #582, #583, .T. );
#502 = EDGE_CURVE( '', #584, #584, #585, .T. );
#503 = FILL_AREA_STYLE( '', ( #586 ) );
#504 = EDGE_CURVE( '', #587, #587, #588, .F. );
#505 = FILL_AREA_STYLE( '', ( #589 ) );
#506 = EDGE_CURVE( '', #590, #590, #591, .T. );
#507 = FILL_AREA_STYLE( '', ( #592 ) );
#508 = EDGE_CURVE( '', #593, #557, #594, .F. );
#509 = EDGE_CURVE( '', #555, #593, #595, .T. );
#510 = FILL_AREA_STYLE( '', ( #596 ) );
#511 = FILL_AREA_STYLE( '', ( #597 ) );
#512 = EDGE_CURVE( '', #551, #598, #599, .T. );
#513 = EDGE_CURVE( '', #598, #550, #600, .T. );
#514 = FILL_AREA_STYLE( '', ( #601 ) );
#515 = EDGE_CURVE( '', #602, #602, #603, .T. );
#516 = EDGE_CURVE( '', #604, #604, #605, .T. );
#517 = FILL_AREA_STYLE( '', ( #606 ) );
#518 = EDGE_CURVE( '', #607, #607, #608, .T. );
#519 = CARTESIAN_POINT( '', ( 0.000000000000000, 0.000000000000000, 5.48875813109439 ) );
#520 = FILL_AREA_STYLE( '', ( #609 ) );
#521 = EDGE_CURVE( '', #610, #610, #611, .T. );
#522 = FILL_AREA_STYLE( '', ( #612 ) );
#523 = EDGE_CURVE( '', #613, #598, #614, .T. );
#524 = EDGE_CURVE( '', #565, #613, #615, .T. );
#525 = EDGE_CURVE( '', #550, #563, #616, .T. );
#526 = FILL_AREA_STYLE( '', ( #617 ) );
#527 = FILL_AREA_STYLE( '', ( #618 ) );
#528 = EDGE_CURVE( '', #619, #573, #620, .T. );
#529 = EDGE_CURVE( '', #621, #619, #622, .T. );
#530 = EDGE_CURVE( '', #621, #623, #624, .T. );
#531 = EDGE_CURVE( '', #559, #623, #625, .T. );
#532 = FILL_AREA_STYLE( '', ( #626 ) );
#533 = FILL_AREA_STYLE( '', ( #627 ) );
#534 = EDGE_CURVE( '', #623, #551, #628, .T. );
#535 = EDGE_CURVE( '', #613, #621, #629, .T. );
#536 = FILL_AREA_STYLE( '', ( #630 ) );
#537 = EDGE_CURVE( '', #569, #555, #631, .T. );
#538 = FILL_AREA_STYLE( '', ( #632 ) );
#539 = FILL_AREA_STYLE( '', ( #633 ) );
#540 = EDGE_CURVE( '', #634, #567, #635, .T. );
#541 = EDGE_CURVE( '', #634, #593, #636, .T. );
#542 = FILL_AREA_STYLE( '', ( #637 ) );
#543 = EDGE_CURVE( '', #619, #634, #638, .T. );
#544 = FILL_AREA_STYLE( '', ( #639 ) );
#545 = FILL_AREA_STYLE( '', ( #640 ) );
#546 = FILL_AREA_STYLE( '', ( #641 ) );
#547 = FILL_AREA_STYLE_COLOUR( '', #642 );
#548 = VERTEX_POINT( '', #643 );
#549 = CIRCLE( '', #644, 1.42950000000000 );
#550 = VERTEX_POINT( '', #645 );
#551 = VERTEX_POINT( '', #646 );
#552 = CIRCLE( '', #647, 2.75000000000000 );
#553 = VERTEX_POINT( '', #648 );
#554 = CIRCLE( '', #649, 2.75000000000000 );
#555 = VERTEX_POINT( '', #650 );
#556 = CIRCLE( '', #651, 2.75000000000000 );
#557 = VERTEX_POINT( '', #652 );
#558 = CIRCLE( '', #653, 2.75000000000000 );
#559 = VERTEX_POINT( '', #654 );
#560 = CIRCLE( '', #655, 2.75000000000000 );
#561 = CIRCLE( '', #656, 2.75000000000000 );
#562 = FILL_AREA_STYLE_COLOUR( '', #657 );
#563 = VERTEX_POINT( '', #658 );
#564 = B_SPLINE_CURVE_WITH_KNOTS( '', 3, ( #659, #660, #661, #662, #663, #664, #665, #666 ), .UNSPECIFIED., .F., .F., ( 4, 2, 2, 4 ), ( 0.000000000000000, 0.000823158556616040, 0.00123461061807352, 0.00164606267953101 ), .UNSPECIFIED. );
#565 = VERTEX_POINT( '', #667 );
#566 = LINE( '', #668, #669 );
#567 = VERTEX_POINT( '', #670 );
#568 = LINE( '', #671, #672 );
#569 = VERTEX_POINT( '', #673 );
#570 = LINE( '', #674, #675 );
#571 = B_SPLINE_CURVE_WITH_KNOTS( '', 3, ( #676, #677, #678, #679, #680, #681 ), .UNSPECIFIED., .F., .F., ( 4, 2, 4 ), ( 0.00164606267953101, 0.00246320102019253, 0.00328033936085404 ), .UNSPECIFIED. );
#572 = FILL_AREA_STYLE_COLOUR( '', #682 );
#573 = VERTEX_POINT( '', #683 );
#574 = B_SPLINE_CURVE_WITH_KNOTS( '', 3, ( #684, #685, #686, #687, #688, #689, #690, #691 ), .UNSPECIFIED., .F., .F., ( 4, 2, 2, 4 ), ( 0.000000000000000, 0.000823158556616038, 0.00123461061807352, 0.00164606267953101 ), .UNSPECIFIED. );
#575 = B_SPLINE_CURVE_WITH_KNOTS( '', 3, ( #692, #693, #694, #695, #696, #697, #698, #699 ), .UNSPECIFIED., .F., .F., ( 4, 2, 2, 4 ), ( 0.00302411526438277, 0.00384377470949773, 0.00425360443205521, 0.00466343415461270 ), .UNSPECIFIED. );
#576 = FILL_AREA_STYLE_COLOUR( '', #700 );
#577 = VERTEX_POINT( '', #701 );
#578 = CIRCLE( '', #702, 1.50000000000000 );
#579 = VERTEX_POINT( '', #703 );
#580 = CIRCLE( '', #704, 1.50000000000000 );
#581 = FILL_AREA_STYLE_COLOUR( '', #705 );
#582 = VERTEX_POINT( '', #706 );
#583 = CIRCLE( '', #707, 1.06698729810000 );
#584 = VERTEX_POINT( '', #708 );
#585 = CIRCLE( '', #709, 1.06698729810000 );
#586 = FILL_AREA_STYLE_COLOUR( '', #710 );
#587 = VERTEX_POINT( '', #711 );
#588 = CIRCLE( '', #712, 1.26698729810000 );
#589 = FILL_AREA_STYLE_COLOUR( '', #713 );
#590 = VERTEX_POINT( '', #714 );
#591 = CIRCLE( '', #715, 1.09378221740000 );
#592 = FILL_AREA_STYLE_COLOUR( '', #716 );
#593 = VERTEX_POINT( '', #717 );
#594 = B_SPLINE_CURVE_WITH_KNOTS( '', 3, ( #718, #719, #720, #721, #722, #723, #724, #725 ), .UNSPECIFIED., .F., .F., ( 4, 2, 2, 4 ), ( 0.00466343415461270, 0.00548435711758286, 0.00589481859906794, 0.00630528008055302 ), .UNSPECIFIED. );
#595 = B_SPLINE_CURVE_WITH_KNOTS( '', 3, ( #726, #727, #728, #729, #730, #731 ), .UNSPECIFIED., .F., .F., ( 4, 2, 4 ), ( 0.00164606267953101, 0.00246320102019253, 0.00328033936085405 ), .UNSPECIFIED. );
#596 = FILL_AREA_STYLE_COLOUR( '', #732 );
#597 = FILL_AREA_STYLE_COLOUR( '', #733 );
#598 = VERTEX_POINT( '', #734 );
#599 = B_SPLINE_CURVE_WITH_KNOTS( '', 3, ( #735, #736, #737, #738, #739, #740 ), .UNSPECIFIED., .F., .F., ( 4, 2, 4 ), ( 0.00164606267953101, 0.00246320102019253, 0.00328033936085405 ), .UNSPECIFIED. );
#600 = B_SPLINE_CURVE_WITH_KNOTS( '', 3, ( #741, #742, #743, #744, #745, #746, #747, #748 ), .UNSPECIFIED., .F., .F., ( 4, 2, 2, 4 ), ( 0.00302411526438279, 0.00384377470949776, 0.00425360443205524, 0.00466343415461272 ), .UNSPECIFIED. );
#601 = FILL_AREA_STYLE_COLOUR( '', #749 );
#602 = VERTEX_POINT( '', #750 );
#603 = CIRCLE( '', #751, 1.22950000000000 );
#604 = VERTEX_POINT( '', #752 );
#605 = CIRCLE( '', #753, 1.22950000000000 );
#606 = FILL_AREA_STYLE_COLOUR( '', #754 );
#607 = VERTEX_POINT( '', #755 );
#608 = CIRCLE( '', #756, 1.22950000000000 );
#609 = FILL_AREA_STYLE_COLOUR( '', #757 );
#610 = VERTEX_POINT( '', #758 );
#611 = CIRCLE( '', #759, 1.30000000000000 );
#612 = FILL_AREA_STYLE_COLOUR( '', #760 );
#613 = VERTEX_POINT( '', #761 );
#614 = LINE( '', #762, #763 );
#615 = LINE( '', #764, #765 );
#616 = B_SPLINE_CURVE_WITH_KNOTS( '', 3, ( #766, #767, #768, #769, #770, #771, #772, #773 ), .UNSPECIFIED., .F., .F., ( 4, 2, 2, 4 ), ( 0.00466343415461272, 0.00548435711758288, 0.00589481859906796, 0.00630528008055304 ), .UNSPECIFIED. );
#617 = FILL_AREA_STYLE_COLOUR( '', #774 );
#618 = FILL_AREA_STYLE_COLOUR( '', #775 );
#619 = VERTEX_POINT( '', #776 );
#620 = LINE( '', #777, #778 );
#621 = VERTEX_POINT( '', #779 );
#622 = LINE( '', #780, #781 );
#623 = VERTEX_POINT( '', #782 );
#624 = LINE( '', #783, #784 );
#625 = B_SPLINE_CURVE_WITH_KNOTS( '', 3, ( #785, #786, #787, #788, #789, #790 ), .UNSPECIFIED., .F., .F., ( 4, 2, 4 ), ( 0.00164606267953101, 0.00246320102019253, 0.00328033936085405 ), .UNSPECIFIED. );
#626 = FILL_AREA_STYLE_COLOUR( '', #791 );
#627 = FILL_AREA_STYLE_COLOUR( '', #792 );
#628 = B_SPLINE_CURVE_WITH_KNOTS( '', 3, ( #793, #794, #795, #796, #797, #798, #799, #800 ), .UNSPECIFIED., .F., .F., ( 4, 2, 2, 4 ), ( 0.000000000000000, 0.000823158556616040, 0.00123461061807353, 0.00164606267953101 ), .UNSPECIFIED. );
#629 = LINE( '', #801, #802 );
#630 = FILL_AREA_STYLE_COLOUR( '', #803 );
#631 = B_SPLINE_CURVE_WITH_KNOTS( '', 3, ( #804, #805, #806, #807, #808, #809, #810, #811 ), .UNSPECIFIED., .F., .F., ( 4, 2, 2, 4 ), ( 0.000000000000000, 0.000823158556616039, 0.00123461061807352, 0.00164606267953101 ), .UNSPECIFIED. );
#632 = FILL_AREA_STYLE_COLOUR( '', #812 );
#633 = FILL_AREA_STYLE_COLOUR( '', #813 );
#634 = VERTEX_POINT( '', #814 );
#635 = LINE( '', #815, #816 );
#636 = LINE( '', #817, #818 );
#637 = FILL_AREA_STYLE_COLOUR( '', #819 );
#638 = LINE( '', #820, #821 );
#639 = FILL_AREA_STYLE_COLOUR( '', #822 );
#640 = FILL_AREA_STYLE_COLOUR( '', #823 );
#641 = FILL_AREA_STYLE_COLOUR( '', #824 );
#642 = COLOUR_RGB( '', 0.329411774900000, 0.337254911700000, 0.349019616800000 );
#643 = CARTESIAN_POINT( '', ( 1.42950000000000, 0.000000000000000, 0.000000000000000 ) );
#644 = AXIS2_PLACEMENT_3D( '', #825, #826, #827 );
#645 = CARTESIAN_POINT( '', ( 6.76041569431720E-015, 2.75000000000000, 0.000000000000000 ) );
#646 = CARTESIAN_POINT( '', ( -2.38156986040721, 1.37500000000000, 0.000000000000000 ) );
#647 = AXIS2_PLACEMENT_3D( '', #828, #829, #830 );
#648 = CARTESIAN_POINT( '', ( 2.38156986040721, 1.37500000000000, 0.000000000000000 ) );
#649 = AXIS2_PLACEMENT_3D( '', #831, #832, #833 );
#650 = CARTESIAN_POINT( '', ( 2.38156986040721, -1.37500000000000, 0.000000000000000 ) );
#651 = AXIS2_PLACEMENT_3D( '', #834, #835, #836 );
#652 = CARTESIAN_POINT( '', ( 0.000000000000000, -2.75000000000000, 0.000000000000000 ) );
#653 = AXIS2_PLACEMENT_3D( '', #837, #838, #839 );
#654 = CARTESIAN_POINT( '', ( -2.38156986040721, -1.37500000000000, 0.000000000000000 ) );
#655 = AXIS2_PLACEMENT_3D( '', #840, #841, #842 );
#656 = AXIS2_PLACEMENT_3D( '', #843, #844, #845 );
#657 = COLOUR_RGB( '', 0.329411774900000, 0.337254911700000, 0.349019616800000 );
#658 = CARTESIAN_POINT( '', ( 1.58771324027147, 2.75000000000000, 0.425426480542942 ) );
#659 = CARTESIAN_POINT( '', ( 1.58771324027147, 2.75000000000000, 0.425426480542940 ) );
#660 = CARTESIAN_POINT( '', ( 1.71220076095464, 2.53438128926846, 0.300938959859768 ) );
#661 = CARTESIAN_POINT( '', ( 1.83950592286786, 2.31388228076899, 0.195156609575095 ) );
#662 = CARTESIAN_POINT( '', ( 2.03732840800635, 1.97124368562958, 0.0820553069377907 ) );
#663 = CARTESIAN_POINT( '', ( 2.10442550436109, 1.85502810570283, 0.0520308640022548 ) );
#664 = CARTESIAN_POINT( '', ( 2.24147164392648, 1.61765722899441, 0.0109148895814746 ) );
#665 = CARTESIAN_POINT( '', ( 2.31204097171543, 1.49542756780795, -1.38828700054980E-015 ) );
#666 = CARTESIAN_POINT( '', ( 2.38156986040721, 1.37500000000000, -1.30104260698264E-015 ) );
#667 = CARTESIAN_POINT( '', ( 1.58771324027147, 2.75000000000000, 6.00000000000000 ) );
#668 = CARTESIAN_POINT( '', ( 1.58771324027147, 2.75000000000000, 6.00000000000000 ) );
#669 = VECTOR( '', #846, 1000.00000000000 );
#670 = CARTESIAN_POINT( '', ( 3.17542648054294, 8.67361737988404E-016, 6.00000000000000 ) );
#671 = CARTESIAN_POINT( '', ( 3.17542648054294, -2.16840434497101E-016, 6.00000000000000 ) );
#672 = VECTOR( '', #847, 1000.00000000000 );
#673 = CARTESIAN_POINT( '', ( 3.17542648054294, 3.90886556815252E-016, 0.425426480542942 ) );
#674 = CARTESIAN_POINT( '', ( 3.17542648054294, 8.67361737988404E-016, 6.00000000000000 ) );
#675 = VECTOR( '', #848, 1000.00000000000 );
#676 = CARTESIAN_POINT( '', ( 2.38156986040721, 1.37500000000000, -1.30104260698264E-015 ) );
#677 = CARTESIAN_POINT( '', ( 2.51965331181192, 1.13583244648256, -1.12062458921744E-015 ) );
#678 = CARTESIAN_POINT( '', ( 2.65538901888924, 0.900731305423360, 0.0422271491653942 ) );
#679 = CARTESIAN_POINT( '', ( 2.92309421098542, 0.437052311262783, 0.194421711542983 ) );
#680 = CARTESIAN_POINT( '', ( 3.05108278530351, 0.215369597755556, 0.301082785303190 ) );
#681 = CARTESIAN_POINT( '', ( 3.17542648054299, -9.04290443092653E-014, 0.425426480542680 ) );
#682 = COLOUR_RGB( '', 0.329411774900000, 0.337254911700000, 0.349019616800000 );
#683 = CARTESIAN_POINT( '', ( -1.58771324027147, -2.75000000000000, 0.425426480542945 ) );
#684 = CARTESIAN_POINT( '', ( -1.58771324027148, -2.75000000000000, 0.425426480542946 ) );
#685 = CARTESIAN_POINT( '', ( -1.71220076095465, -2.53438128926847, 0.300938959859774 ) );
#686 = CARTESIAN_POINT( '', ( -1.83950592286787, -2.31388228076899, 0.195156609575101 ) );
#687 = CARTESIAN_POINT( '', ( -2.03732840800636, -1.97124368562959, 0.0820553069377983 ) );
#688 = CARTESIAN_POINT( '', ( -2.10442550436110, -1.85502810570283, 0.0520308640022624 ) );
#689 = CARTESIAN_POINT( '', ( -2.24147164392648, -1.61765722899441, 0.0109148895814824 ) );
#690 = CARTESIAN_POINT( '', ( -2.31204097171544, -1.49542756780796, 7.06467829657449E-015 ) );
#691 = CARTESIAN_POINT( '', ( -2.38156986040721, -1.37500000000000, 7.04731412115574E-015 ) );
#692 = CARTESIAN_POINT( '', ( -1.58771324027163, -2.75000000000000, 0.425426480542718 ) );
#693 = CARTESIAN_POINT( '', ( -1.34130115347395, -2.75000000000000, 0.302220437143870 ) );
#694 = CARTESIAN_POINT( '', ( -1.08230934259622, -2.75000000000000, 0.194431183015577 ) );
#695 = CARTESIAN_POINT( '', ( -0.685731715024733, -2.75000000000000, 0.0813730511187717 ) );
#696 = CARTESIAN_POINT( '', ( -0.551665108834105, -2.75000000000000, 0.0515468261799953 ) );
#697 = CARTESIAN_POINT( '', ( -0.279017029746885, -2.75000000000000, 0.0108297176506619 ) );
#698 = CARTESIAN_POINT( '', ( -0.139107496024036, -2.75000000000000, -2.69229422284779E-014 ) );
#699 = CARTESIAN_POINT( '', ( 4.43362687191890E-015, -2.75000000000000, -2.67012950474413E-014 ) );
#700 = COLOUR_RGB( '', 0.184313729400000, 0.749019622800000, 0.580392181900000 );
#701 = CARTESIAN_POINT( '', ( 1.50000000000000, 0.000000000000000, 11.8000000000000 ) );
#702 = AXIS2_PLACEMENT_3D( '', #849, #850, #851 );
#703 = CARTESIAN_POINT( '', ( -1.50000000000001, 0.000000000000000, 7.25000000000000 ) );
#704 = AXIS2_PLACEMENT_3D( '', #852, #853, #854 );
#705 = COLOUR_RGB( '', 0.329411774900000, 0.337254911700000, 0.349019616800000 );
#706 = CARTESIAN_POINT( '', ( -1.06698729810778, 0.000000000000000, 6.44641016151377 ) );
#707 = AXIS2_PLACEMENT_3D( '', #855, #856, #857 );
#708 = CARTESIAN_POINT( '', ( 1.06698729810776, 0.000000000000000, 6.20000000000000 ) );
#709 = AXIS2_PLACEMENT_3D( '', #858, #859, #860 );
#710 = COLOUR_RGB( '', 0.329411774900000, 0.337254911700000, 0.349019616800000 );
#711 = CARTESIAN_POINT( '', ( 1.26698729810776, 0.000000000000000, 6.00000000000000 ) );
#712 = AXIS2_PLACEMENT_3D( '', #861, #862, #863 );
#713 = COLOUR_RGB( '', 0.329411774900000, 0.337254911700000, 0.349019616800000 );
#714 = CARTESIAN_POINT( '', ( 1.09378221735087, 0.000000000000000, 6.54641016151377 ) );
#715 = AXIS2_PLACEMENT_3D( '', #864, #865, #866 );
#716 = COLOUR_RGB( '', 0.329411774900000, 0.337254911700000, 0.349019616800000 );
#717 = CARTESIAN_POINT( '', ( 1.58771324027147, -2.75000000000000, 0.425426480542944 ) );
#718 = CARTESIAN_POINT( '', ( 4.43362687191890E-015, -2.75000000000000, -2.67012950474413E-014 ) );
#719 = CARTESIAN_POINT( '', ( 0.278643864809975, -2.75000000000000, -2.62467275922533E-014 ) );
#720 = CARTESIAN_POINT( '', ( 0.550356263743468, -2.75000000000000, 0.0428808025256990 ) );
#721 = CARTESIAN_POINT( '', ( 0.949933055829290, -2.75000000000000, 0.156642496175941 ) );
#722 = CARTESIAN_POINT( '', ( 1.08237217782713, -2.75000000000000, 0.202997454069445 ) );
#723 = CARTESIAN_POINT( '', ( 1.33941767674506, -2.75000000000000, 0.306583737636429 ) );
#724 = CARTESIAN_POINT( '', ( 1.46474771457050, -2.75000000000000, 0.363943717692456 ) );
#725 = CARTESIAN_POINT( '', ( 1.58771324027148, -2.75000000000000, 0.425426480542943 ) );
#726 = CARTESIAN_POINT( '', ( 2.38156986040721, -1.37500000000000, 3.46944695195359E-015 ) );
#727 = CARTESIAN_POINT( '', ( 2.24348640900249, -1.61416755351744, 3.27039420934885E-015 ) );
#728 = CARTESIAN_POINT( '', ( 2.10775070192518, -1.84926869457664, 0.0422271491653982 ) );
#729 = CARTESIAN_POINT( '', ( 1.84004550982899, -2.31294768873722, 0.194421711542987 ) );
#730 = CARTESIAN_POINT( '', ( 1.71205693551091, -2.53463040224444, 0.301082785303193 ) );
#731 = CARTESIAN_POINT( '', ( 1.58771324027142, -2.75000000000009, 0.425426480542684 ) );
#732 = COLOUR_RGB( '', 0.329411774900000, 0.337254911700000, 0.349019616800000 );
#733 = COLOUR_RGB( '', 0.329411774900000, 0.337254911700000, 0.349019616800000 );
#734 = CARTESIAN_POINT( '', ( -1.58771324027147, 2.75000000000000, 0.425426480542948 ) );
#735 = CARTESIAN_POINT( '', ( -2.38156986040721, 1.37500000000000, 4.33680868994199E-015 ) );
#736 = CARTESIAN_POINT( '', ( -2.24348640900249, 1.61416755351744, 4.23474121979787E-015 ) );
#737 = CARTESIAN_POINT( '', ( -2.10775070192518, 1.84926869457664, 0.0422271491653993 ) );
#738 = CARTESIAN_POINT( '', ( -1.84004550982899, 2.31294768873722, 0.194421711542988 ) );
#739 = CARTESIAN_POINT( '', ( -1.71205693551091, 2.53463040224444, 0.301082785303194 ) );
#740 = CARTESIAN_POINT( '', ( -1.58771324027142, 2.75000000000009, 0.425426480542684 ) );
#741 = CARTESIAN_POINT( '', ( -1.58771324027163, 2.75000000000001, 0.425426480542724 ) );
#742 = CARTESIAN_POINT( '', ( -1.34130115347395, 2.75000000000001, 0.302220437143875 ) );
#743 = CARTESIAN_POINT( '', ( -1.08230934259622, 2.75000000000001, 0.194431183015583 ) );
#744 = CARTESIAN_POINT( '', ( -0.685731715024729, 2.75000000000001, 0.0813730511187765 ) );
#745 = CARTESIAN_POINT( '', ( -0.551665108834100, 2.75000000000000, 0.0515468261799994 ) );
#746 = CARTESIAN_POINT( '', ( -0.279017029746879, 2.75000000000000, 0.0108297176506659 ) );
#747 = CARTESIAN_POINT( '', ( -0.139107496024030, 2.75000000000000, -2.29677218812740E-014 ) );
#748 = CARTESIAN_POINT( '', ( 1.01110058215950E-014, 2.75000000000000, -2.27981684672644E-014 ) );
#749 = COLOUR_RGB( '', 0.184313729400000, 0.749019622800000, 0.580392181900000 );
#750 = CARTESIAN_POINT( '', ( 0.000000000000000, 1.22950000000000, 3.00000000000000 ) );
#751 = AXIS2_PLACEMENT_3D( '', #867, #868, #869 );
#752 = CARTESIAN_POINT( '', ( -1.22950000000000, 0.000000000000000, 0.200000000000000 ) );
#753 = AXIS2_PLACEMENT_3D( '', #870, #871, #872 );
#754 = COLOUR_RGB( '', 0.329411774900000, 0.337254911700000, 0.349019616800000 );
#755 = CARTESIAN_POINT( '', ( 0.000000000000000, -1.22950000000000, 4.75000000000000 ) );
#756 = AXIS2_PLACEMENT_3D( '', #873, #874, #875 );
#757 = COLOUR_RGB( '', 0.329411774900000, 0.337254911700000, 0.349019616800000 );
#758 = CARTESIAN_POINT( '', ( 1.30000000000000, 0.000000000000000, 12.0000000000000 ) );
#759 = AXIS2_PLACEMENT_3D( '', #876, #877, #878 );
#760 = COLOUR_RGB( '', 0.329411774900000, 0.337254911700000, 0.349019616800000 );
#761 = CARTESIAN_POINT( '', ( -1.58771324027147, 2.75000000000000, 6.00000000000000 ) );
#762 = CARTESIAN_POINT( '', ( -1.58771324027147, 2.75000000000000, 6.00000000000000 ) );
#763 = VECTOR( '', #879, 1000.00000000000 );
#764 = CARTESIAN_POINT( '', ( 1.58771324027147, 2.75000000000000, 6.00000000000000 ) );
#765 = VECTOR( '', #880, 1000.00000000000 );
#766 = CARTESIAN_POINT( '', ( 1.01110058215950E-014, 2.75000000000000, -2.27981684672644E-014 ) );
#767 = CARTESIAN_POINT( '', ( 0.278643864809980, 2.75000000000000, -2.24506082669752E-014 ) );
#768 = CARTESIAN_POINT( '', ( 0.550356263743472, 2.75000000000000, 0.0428808025257021 ) );
#769 = CARTESIAN_POINT( '', ( 0.949933055829292, 2.75000000000000, 0.156642496175943 ) );
#770 = CARTESIAN_POINT( '', ( 1.08237217782713, 2.75000000000000, 0.202997454069446 ) );
#771 = CARTESIAN_POINT( '', ( 1.33941767674506, 2.75000000000000, 0.306583737636429 ) );
#772 = CARTESIAN_POINT( '', ( 1.46474771457050, 2.75000000000000, 0.363943717692456 ) );
#773 = CARTESIAN_POINT( '', ( 1.58771324027147, 2.75000000000000, 0.425426480542942 ) );
#774 = COLOUR_RGB( '', 0.329411774900000, 0.337254911700000, 0.349019616800000 );
#775 = COLOUR_RGB( '', 0.329411774900000, 0.337254911700000, 0.349019616800000 );
#776 = CARTESIAN_POINT( '', ( -1.58771324027147, -2.75000000000000, 6.00000000000000 ) );
#777 = CARTESIAN_POINT( '', ( -1.58771324027147, -2.75000000000000, 6.00000000000000 ) );
#778 = VECTOR( '', #881, 1000.00000000000 );
#779 = CARTESIAN_POINT( '', ( -3.17542648054295, 0.000000000000000, 6.00000000000000 ) );
#780 = CARTESIAN_POINT( '', ( -3.17542648054295, -2.16840434497101E-016, 6.00000000000000 ) );
#781 = VECTOR( '', #882, 1000.00000000000 );
#782 = CARTESIAN_POINT( '', ( -3.17542648054295, 0.000000000000000, 0.425426480542949 ) );
#783 = CARTESIAN_POINT( '', ( -3.17542648054295, 0.000000000000000, 6.00000000000000 ) );
#784 = VECTOR( '', #883, 1000.00000000000 );
#785 = CARTESIAN_POINT( '', ( -2.38156986040721, -1.37500000000000, 7.04731412115574E-015 ) );
#786 = CARTESIAN_POINT( '', ( -2.51965331181193, -1.13583244648257, 7.01724445152825E-015 ) );
#787 = CARTESIAN_POINT( '', ( -2.65538901888925, -0.900731305423364, 0.0422271491654021 ) );
#788 = CARTESIAN_POINT( '', ( -2.92309421098543, -0.437052311262785, 0.194421711542992 ) );
#789 = CARTESIAN_POINT( '', ( -3.05108278530352, -0.215369597755558, 0.301082785303199 ) );
#790 = CARTESIAN_POINT( '', ( -3.17542648054300, 9.01333748031629E-014, 0.425426480542690 ) );
#791 = COLOUR_RGB( '', 0.329411774900000, 0.337254911700000, 0.349019616800000 );
#792 = COLOUR_RGB( '', 0.329411774900000, 0.337254911700000, 0.349019616800000 );
#793 = CARTESIAN_POINT( '', ( -3.17542648054295, -1.48201279430035E-015, 0.425426480542948 ) );
#794 = CARTESIAN_POINT( '', ( -3.05093895985978, 0.215618710731535, 0.300938959859775 ) );
#795 = CARTESIAN_POINT( '', ( -2.92363379794656, 0.436117719231011, 0.195156609575101 ) );
#796 = CARTESIAN_POINT( '', ( -2.72581131280807, 0.778756314370415, 0.0820553069377967 ) );
#797 = CARTESIAN_POINT( '', ( -2.65871421645333, 0.894971894297170, 0.0520308640022609 ) );
#798 = CARTESIAN_POINT( '', ( -2.52166807688794, 1.13234277100559, 0.0109148895814803 ) );
#799 = CARTESIAN_POINT( '', ( -2.45109874909898, 1.25457243219205, 4.39398341388168E-015 ) );
#800 = CARTESIAN_POINT( '', ( -2.38156986040721, 1.37500000000000, 4.33680868994199E-015 ) );
#801 = CARTESIAN_POINT( '', ( -1.58771324027147, 2.75000000000000, 6.00000000000000 ) );
#802 = VECTOR( '', #884, 1000.00000000000 );
#803 = COLOUR_RGB( '', 0.329411774900000, 0.337254911700000, 0.349019616800000 );
#804 = CARTESIAN_POINT( '', ( 3.17542648054294, -2.66107280175737E-015, 0.425426480542944 ) );
#805 = CARTESIAN_POINT( '', ( 3.05093895985977, -0.215618710731538, 0.300938959859772 ) );
#806 = CARTESIAN_POINT( '', ( 2.92363379794655, -0.436117719231014, 0.195156609575099 ) );
#807 = CARTESIAN_POINT( '', ( 2.72581131280806, -0.778756314370416, 0.0820553069377952 ) );
#808 = CARTESIAN_POINT( '', ( 2.65871421645332, -0.894971894297172, 0.0520308640022595 ) );
#809 = CARTESIAN_POINT( '', ( 2.52166807688794, -1.13234277100559, 0.0109148895814794 ) );
#810 = CARTESIAN_POINT( '', ( 2.45109874909898, -1.25457243219205, 3.57913771862305E-015 ) );
#811 = CARTESIAN_POINT( '', ( 2.38156986040721, -1.37500000000000, 3.46944695195359E-015 ) );
#812 = COLOUR_RGB( '', 0.329411774900000, 0.337254911700000, 0.349019616800000 );
#813 = COLOUR_RGB( '', 0.329411774900000, 0.337254911700000, 0.349019616800000 );
#814 = CARTESIAN_POINT( '', ( 1.58771324027147, -2.75000000000000, 6.00000000000000 ) );
#815 = CARTESIAN_POINT( '', ( 1.58771324027147, -2.75000000000000, 6.00000000000000 ) );
#816 = VECTOR( '', #885, 1000.00000000000 );
#817 = CARTESIAN_POINT( '', ( 1.58771324027147, -2.75000000000000, 6.00000000000000 ) );
#818 = VECTOR( '', #886, 1000.00000000000 );
#819 = COLOUR_RGB( '', 0.329411774900000, 0.337254911700000, 0.349019616800000 );
#820 = CARTESIAN_POINT( '', ( -1.58771324027147, -2.75000000000000, 6.00000000000000 ) );
#821 = VECTOR( '', #887, 1000.00000000000 );
#822 = COLOUR_RGB( '', 0.329411774900000, 0.337254911700000, 0.349019616800000 );
#823 = COLOUR_RGB( '', 0.329411774900000, 0.337254911700000, 0.349019616800000 );
#824 = COLOUR_RGB( '', 0.329411774900000, 0.337254911700000, 0.349019616800000 );
#825 = CARTESIAN_POINT( '', ( 0.000000000000000, 0.000000000000000, 0.000000000000000 ) );
#826 = DIRECTION( '', ( 0.000000000000000, 0.000000000000000, 1.00000000000000 ) );
#827 = DIRECTION( '', ( 1.00000000000000, 0.000000000000000, 0.000000000000000 ) );
#828 = CARTESIAN_POINT( '', ( 0.000000000000000, 0.000000000000000, 0.000000000000000 ) );
#829 = DIRECTION( '', ( 0.000000000000000, 0.000000000000000, 1.00000000000000 ) );
#830 = DIRECTION( '', ( 1.00000000000000, 0.000000000000000, 0.000000000000000 ) );
#831 = CARTESIAN_POINT( '', ( 0.000000000000000, 0.000000000000000, 0.000000000000000 ) );
#832 = DIRECTION( '', ( 0.000000000000000, 0.000000000000000, 1.00000000000000 ) );
#833 = DIRECTION( '', ( 1.00000000000000, 0.000000000000000, 0.000000000000000 ) );
#834 = CARTESIAN_POINT( '', ( 0.000000000000000, 0.000000000000000, 0.000000000000000 ) );
#835 = DIRECTION( '', ( 0.000000000000000, 0.000000000000000, 1.00000000000000 ) );
#836 = DIRECTION( '', ( 1.00000000000000, 0.000000000000000, 0.000000000000000 ) );
#837 = CARTESIAN_POINT( '', ( 0.000000000000000, 0.000000000000000, 0.000000000000000 ) );
#838 = DIRECTION( '', ( 0.000000000000000, 0.000000000000000, 1.00000000000000 ) );
#839 = DIRECTION( '', ( 1.00000000000000, 0.000000000000000, 0.000000000000000 ) );
#840 = CARTESIAN_POINT( '', ( 0.000000000000000, 0.000000000000000, 0.000000000000000 ) );
#841 = DIRECTION( '', ( 0.000000000000000, 0.000000000000000, 1.00000000000000 ) );
#842 = DIRECTION( '', ( 1.00000000000000, 0.000000000000000, 0.000000000000000 ) );
#843 = CARTESIAN_POINT( '', ( 0.000000000000000, 0.000000000000000, 0.000000000000000 ) );
#844 = DIRECTION( '', ( 0.000000000000000, 0.000000000000000, 1.00000000000000 ) );
#845 = DIRECTION( '', ( 1.00000000000000, 0.000000000000000, 0.000000000000000 ) );
#846 = DIRECTION( '', ( 0.000000000000000, 0.000000000000000, -1.00000000000000 ) );
#847 = DIRECTION( '', ( -0.500000000000000, 0.866025403784439, 0.000000000000000 ) );
#848 = DIRECTION( '', ( 0.000000000000000, 0.000000000000000, -1.00000000000000 ) );
#849 = CARTESIAN_POINT( '', ( 1.49456520900474E-015, 0.000000000000000, 11.8000000000000 ) );
#850 = DIRECTION( '', ( 1.68665076409874E-015, 0.000000000000000, 1.00000000000000 ) );
#851 = DIRECTION( '', ( 1.00000000000000, 0.000000000000000, -1.68665076409874E-015 ) );
#852 = CARTESIAN_POINT( '', ( -6.17969576764450E-015, 0.000000000000000, 7.25000000000000 ) );
#853 = DIRECTION( '', ( -1.68665076409874E-015, 0.000000000000000, -1.00000000000000 ) );
#854 = DIRECTION( '', ( -1.00000000000000, 0.000000000000000, 1.68665076409874E-015 ) );
#855 = CARTESIAN_POINT( '', ( -7.53507118274926E-015, 0.000000000000000, 6.44641016151377 ) );
#856 = DIRECTION( '', ( -1.68665076409874E-015, 0.000000000000000, -1.00000000000000 ) );
#857 = DIRECTION( '', ( -1.00000000000000, 0.000000000000000, 1.68665076409874E-015 ) );
#858 = CARTESIAN_POINT( '', ( -7.95067906994816E-015, 0.000000000000000, 6.20000000000000 ) );
#859 = DIRECTION( '', ( 0.000000000000000, 0.000000000000000, 1.00000000000000 ) );
#860 = DIRECTION( '', ( 1.00000000000000, 0.000000000000000, 0.000000000000000 ) );
#861 = CARTESIAN_POINT( '', ( -7.95067906994816E-015, 0.000000000000000, 6.00000000000000 ) );
#862 = DIRECTION( '', ( 0.000000000000000, 0.000000000000000, 1.00000000000000 ) );
#863 = DIRECTION( '', ( 1.00000000000000, 0.000000000000000, 0.000000000000000 ) );
#864 = CARTESIAN_POINT( '', ( -7.36640610633939E-015, 0.000000000000000, 6.54641016151377 ) );
#865 = DIRECTION( '', ( 1.68665076409874E-015, 0.000000000000000, 1.00000000000000 ) );
#866 = DIRECTION( '', ( 1.00000000000000, 0.000000000000000, -1.68665076409873E-015 ) );
#867 = CARTESIAN_POINT( '', ( 0.000000000000000, 0.000000000000000, 3.00000000000000 ) );
#868 = DIRECTION( '', ( 0.000000000000000, 0.000000000000000, -1.00000000000000 ) );
#869 = DIRECTION( '', ( 0.000000000000000, 1.00000000000000, 0.000000000000000 ) );
#870 = CARTESIAN_POINT( '', ( 0.000000000000000, 0.000000000000000, 0.200000000000000 ) );
#871 = DIRECTION( '', ( 0.000000000000000, 0.000000000000000, -1.00000000000000 ) );
#872 = DIRECTION( '', ( -1.00000000000000, 0.000000000000000, 0.000000000000000 ) );
#873 = CARTESIAN_POINT( '', ( 0.000000000000000, 0.000000000000000, 4.75000000000000 ) );
#874 = DIRECTION( '', ( 0.000000000000000, 0.000000000000000, 1.00000000000000 ) );
#875 = DIRECTION( '', ( 0.000000000000000, -1.00000000000000, 0.000000000000000 ) );
#876 = CARTESIAN_POINT( '', ( 1.83189536182448E-015, 0.000000000000000, 12.0000000000000 ) );
#877 = DIRECTION( '', ( 1.68665076409873E-015, 0.000000000000000, 1.00000000000000 ) );
#878 = DIRECTION( '', ( 1.00000000000000, 0.000000000000000, -1.68665076409873E-015 ) );
#879 = DIRECTION( '', ( 0.000000000000000, 0.000000000000000, -1.00000000000000 ) );
#880 = DIRECTION( '', ( -1.00000000000000, 2.45833297975171E-015, 0.000000000000000 ) );
#881 = DIRECTION( '', ( 0.000000000000000, 0.000000000000000, -1.00000000000000 ) );
#882 = DIRECTION( '', ( 0.500000000000000, -0.866025403784438, 0.000000000000000 ) );
#883 = DIRECTION( '', ( 0.000000000000000, 0.000000000000000, -1.00000000000000 ) );
#884 = DIRECTION( '', ( -0.500000000000000, -0.866025403784439, 0.000000000000000 ) );
#885 = DIRECTION( '', ( 0.500000000000000, 0.866025403784439, 0.000000000000000 ) );
#886 = DIRECTION( '', ( 0.000000000000000, 0.000000000000000, -1.00000000000000 ) );
#887 = DIRECTION( '', ( 1.00000000000000, 0.000000000000000, 0.000000000000000 ) );
ENDSEC;
END-ISO-10303-21;
