M48
;Layer_Color=9474304
;FILE_FORMAT=4:3
METRIC,LZ
;TYPE=PLATED
T01F00S00C0.800
T02F00S00C1.000
T03F00S00C1.400
T04F00S00C1.650
T05F00S00C3.400
;TYPE=NON_PLATED
T06F00S00C2.800
T07F00S00C4.300
%
T01
X016826Y0034
X017222
X017618
Y0044
X017222
X016826
X018014
Y0034
T02
X016954Y0024192
X017094Y0029292
X018462Y004111
X018716
X01897
Y004365
Y004619
Y004873
Y005127
Y005381
Y005635
Y005889
X018716
Y005635
Y005381
Y005127
Y004873
Y004619
Y004365
X018462
Y004619
Y004873
Y005127
Y005381
Y005635
Y005889
X018462Y007667
X01897
Y008175
X018462
T03
X016706Y00915
X017214
T04
X018014Y0017
X017618
X017222
X016826
T05
X0146625Y00085
X013525Y0027775
X004
X0028625Y00085
X004Y0072225
X013525
X0146625Y00915
X0028625
T06
X019224Y000555
Y009445
T07
X0019099Y00642
X00271
X0155Y00707
X01681Y0070699
X01681Y00787
X0155Y00787
X00606Y00747
Y00827
M30
